<svg width="26" height="27" viewBox="0 0 26 27" fill="none" xmlns="http://www.w3.org/2000/svg">
<path d="M9.81068 21.8215L2.56928 14.3416C2.52751 14.2985 2.49437 14.2472 2.47176 14.1907C2.44914 14.1343 2.4375 14.0737 2.4375 14.0125C2.4375 13.9514 2.44914 13.8908 2.47176 13.8344C2.49437 13.7779 2.52751 13.7266 2.56928 13.6835L4.3974 11.7829C4.57209 11.6015 4.85443 11.6015 5.02912 11.7829L9.79646 16.7041C9.97115 16.8855 10.2555 16.8834 10.4302 16.702L20.9643 5.65731C21.139 5.4738 21.4233 5.4738 21.6001 5.6552L23.4302 7.55575C23.6049 7.73715 23.6049 8.03036 23.4322 8.21176L11.9557 20.2373L11.9577 20.2394L10.4444 21.8193C10.2697 22.0007 9.98537 22.0007 9.81068 21.8215Z" fill="white" stroke="white" stroke-width="2" stroke-miterlimit="10"/>
</svg>
