<svg width="16" height="13" viewBox="0 0 16 13" fill="none" xmlns="http://www.w3.org/2000/svg">
<path d="M6.03734 10.9315L1.58109 6.49897C1.55539 6.47341 1.535 6.44303 1.52108 6.40956C1.50716 6.37609 1.5 6.34021 1.5 6.30397C1.5 6.26772 1.50716 6.23184 1.52108 6.19837C1.535 6.16491 1.55539 6.13452 1.58109 6.10897L2.70609 4.98272C2.81359 4.87522 2.98734 4.87522 3.09484 4.98272L6.02859 7.89897C6.13609 8.00647 6.31109 8.00522 6.41859 7.89772L12.9011 1.35272C13.0086 1.24397 13.1836 1.24397 13.2923 1.35147L14.4186 2.47772C14.5261 2.58522 14.5261 2.75897 14.4198 2.86647L7.35734 9.99272L7.35859 9.99397L6.42734 10.9302C6.31984 11.0377 6.14484 11.0377 6.03734 10.9315Z" fill="white" stroke="white" stroke-width="2" stroke-miterlimit="10"/>
</svg>
