<svg width="22" height="22" viewBox="0 0 22 22" fill="none" xmlns="http://www.w3.org/2000/svg">
<path d="M10.9999 0.44043C5.16774 0.44043 0.439941 5.16823 0.439941 11.0004C0.439941 16.8326 5.16774 21.5604 10.9999 21.5604C16.8321 21.5604 21.5599 16.8326 21.5599 11.0004C21.5599 5.16823 16.8321 0.44043 10.9999 0.44043ZM15.0611 12.3545C15.0611 12.3545 15.995 13.2763 16.2249 13.7042C16.2315 13.713 16.2348 13.7218 16.237 13.7262C16.3305 13.8835 16.3525 14.0056 16.3063 14.0969C16.2293 14.2487 15.9653 14.3235 15.8751 14.3301H14.2251C14.1107 14.3301 13.8709 14.3004 13.5805 14.1002C13.3572 13.944 13.1372 13.6877 12.9227 13.438C12.6026 13.0662 12.3254 12.745 12.046 12.745C12.0106 12.745 11.9753 12.7505 11.9415 12.7615C11.7303 12.8297 11.4597 13.1311 11.4597 13.9341C11.4597 14.1849 11.2617 14.329 11.122 14.329H10.3663C10.1089 14.329 8.76804 14.2388 7.58004 12.9859C6.12584 11.4514 4.81684 8.37363 4.80584 8.34503C4.72334 8.14593 4.89384 8.03923 5.07974 8.03923H6.74624C6.96844 8.03923 7.04104 8.17453 7.09164 8.29443C7.15104 8.43413 7.36884 8.98963 7.72634 9.61443C8.30604 10.633 8.66134 11.0466 8.94624 11.0466C8.99966 11.046 9.05213 11.0324 9.09914 11.007C9.47094 10.8002 9.40164 9.47473 9.38514 9.19973C9.38514 9.14803 9.38404 8.60683 9.19374 8.34723C9.05734 8.15913 8.82524 8.08763 8.68444 8.06123C8.74143 7.98259 8.81651 7.91883 8.90334 7.87533C9.15854 7.74773 9.61834 7.72903 10.0748 7.72903H10.3289C10.8239 7.73563 10.9515 7.76753 11.1308 7.81263C11.4938 7.89953 11.5015 8.13383 11.4696 8.93573C11.4597 9.16343 11.4498 9.42083 11.4498 9.72443C11.4498 9.79043 11.4465 9.86083 11.4465 9.93563C11.4355 10.3437 11.4223 10.8068 11.7105 10.9971C11.7481 11.0207 11.7916 11.0333 11.8359 11.0334C11.936 11.0334 12.2374 11.0334 13.0536 9.63313C13.3054 9.18241 13.5241 8.71405 13.7081 8.23173C13.7246 8.20313 13.773 8.11513 13.8302 8.08103C13.8725 8.05951 13.9193 8.04856 13.9666 8.04913H15.9257C16.1391 8.04913 16.2854 8.08103 16.3129 8.16353C16.3613 8.29443 16.3041 8.69373 15.4098 9.90483L15.0105 10.4317C14.1998 11.4943 14.1998 11.5482 15.0611 12.3545Z" fill="#00A5E0"/>
</svg>
