<svg width="68" height="68" viewBox="0 0 68 68" fill="none" xmlns="http://www.w3.org/2000/svg">
<circle cx="34" cy="34" r="34" fill="#2C2C2C"/>
<path d="M10.456 28.4L10.276 33.8C10.114 38.048 9.502 39.884 7.9 39.884C7.702 39.884 7.54 39.866 7.306 39.812L7.198 41C7.576 41.09 7.882 41.126 8.206 41.126C10.492 41.126 11.284 38.804 11.464 33.764L11.608 29.552H17.692V41H19.006V28.4H10.456ZM28.7828 41.108C32.5628 41.108 35.3888 38.39 35.3888 34.7C35.3888 31.01 32.5628 28.292 28.7828 28.292C24.9668 28.292 22.1588 31.028 22.1588 34.7C22.1588 38.372 24.9668 41.108 28.7828 41.108ZM28.7828 39.92C25.7408 39.92 23.4728 37.706 23.4728 34.7C23.4728 31.694 25.7408 29.48 28.7828 29.48C31.8068 29.48 34.0568 31.694 34.0568 34.7C34.0568 37.706 31.8068 39.92 28.7828 39.92ZM46.5774 28.4H38.5674V41H39.8814L39.8634 29.552H46.5774V28.4ZM52.6891 41.108C56.4691 41.108 59.2951 38.39 59.2951 34.7C59.2951 31.01 56.4691 28.292 52.6891 28.292C48.8731 28.292 46.0651 31.028 46.0651 34.7C46.0651 38.372 48.8731 41.108 52.6891 41.108ZM52.6891 39.92C49.6471 39.92 47.3791 37.706 47.3791 34.7C47.3791 31.694 49.6471 29.48 52.6891 29.48C55.7131 29.48 57.9631 31.694 57.9631 34.7C57.9631 37.706 55.7131 39.92 52.6891 39.92Z" fill="white"/>
</svg>
