<svg width="14" height="11" viewBox="0 0 14 11" fill="none" xmlns="http://www.w3.org/2000/svg">
<path d="M11.1407 0.765512C11.3608 0.555964 11.6537 0.440117 11.9576 0.442416C12.2615 0.444716 12.5526 0.564982 12.7695 0.777837C12.9864 0.990692 13.1121 1.27949 13.1202 1.58328C13.1282 1.88708 13.0179 2.18212 12.8125 2.40614L6.57816 10.203C6.47096 10.3185 6.34157 10.4111 6.19774 10.4755C6.05391 10.5398 5.89858 10.5744 5.74105 10.5774C5.58352 10.5803 5.42702 10.5514 5.2809 10.4924C5.13479 10.4335 5.00206 10.3457 4.89066 10.2343L0.756283 6.09989C0.641147 5.9926 0.5488 5.86323 0.48475 5.71948C0.4207 5.57573 0.386259 5.42055 0.383483 5.2632C0.380707 5.10586 0.409652 4.94956 0.468591 4.80364C0.52753 4.65772 0.615256 4.52517 0.726535 4.41389C0.837815 4.30261 0.970367 4.21489 1.11629 4.15595C1.26221 4.09701 1.4185 4.06806 1.57585 4.07084C1.7332 4.07361 1.88837 4.10806 2.03212 4.17211C2.17587 4.23616 2.30525 4.3285 2.41253 4.44364L5.68441 7.71395L11.111 0.799888C11.1207 0.787858 11.1312 0.776381 11.1422 0.765512H11.1407Z" fill="white"/>
</svg>
