<svg width="14" height="16" viewBox="0 0 14 16" fill="none" xmlns="http://www.w3.org/2000/svg">
<path d="M5.72907 0.207787C5.78746 0.148004 5.85723 0.100524 5.93426 0.0681489C6.0113 0.0357738 6.09404 0.0191597 6.17761 0.0192878C6.26117 0.019416 6.34386 0.0362837 6.4208 0.0688951C6.49774 0.101506 6.56737 0.149201 6.62557 0.209162L13.7508 7.52004C13.876 7.64843 13.946 7.82062 13.946 7.99991C13.946 8.1792 13.876 8.3514 13.7508 8.47979L6.62557 15.7907C6.56727 15.8505 6.49758 15.8981 6.42059 15.9306C6.3436 15.9631 6.26088 15.9798 6.17732 15.9798C6.09375 15.9798 6.01104 15.9631 5.93405 15.9306C5.85706 15.8981 5.78736 15.8505 5.72907 15.7907C5.60914 15.6679 5.542 15.503 5.542 15.3314C5.542 15.1598 5.60914 14.9949 5.72907 14.8722L12.4294 7.99991L5.72907 1.12491C5.60955 1.00219 5.54267 0.837655 5.54267 0.66635C5.54267 0.495045 5.60955 0.330509 5.72907 0.207787ZM0.229065 0.207787C0.287451 0.148004 0.357222 0.100524 0.43426 0.0681489C0.511298 0.0357738 0.594041 0.0191597 0.677605 0.0192878C0.761169 0.019416 0.843861 0.0362837 0.920799 0.0688951C0.997737 0.101506 1.06736 0.149201 1.12557 0.209162L8.25082 7.52004C8.37596 7.64843 8.446 7.82062 8.446 7.99991C8.446 8.1792 8.37596 8.3514 8.25082 8.47979L1.12557 15.7907C1.06727 15.8505 0.997572 15.8981 0.920584 15.9306C0.843596 15.9631 0.760879 15.9798 0.677315 15.9798C0.593751 15.9798 0.511034 15.9631 0.434046 15.9306C0.357058 15.8981 0.287359 15.8505 0.229065 15.7907C0.109134 15.6679 0.0419922 15.503 0.0419922 15.3314C0.0419922 15.1598 0.109134 14.9949 0.229065 14.8722L6.92944 7.99991L0.229065 1.12491C0.109545 1.00219 0.0426626 0.837655 0.0426626 0.66635C0.0426626 0.495045 0.109545 0.330509 0.229065 0.207787Z" fill="#00A5E0"/>
</svg>
