<svg width="27" height="27" viewBox="0 0 27 27" fill="none" xmlns="http://www.w3.org/2000/svg">
<path d="M23.8857 27H23.7092C3.31098 25.8265 0.414738 8.60885 0.00988752 3.35423C-0.0227339 2.94568 0.0255507 2.5347 0.151975 2.14485C0.278398 1.755 0.480476 1.39393 0.746631 1.08234C1.01278 0.770746 1.33778 0.514753 1.70301 0.329026C2.06823 0.143298 2.46649 0.031488 2.87499 9.73652e-07H8.5948C9.01061 -0.000401704 9.41697 0.124107 9.76122 0.3574C10.1055 0.590692 10.3718 0.922019 10.5256 1.30846L12.1035 5.19231C12.2554 5.56984 12.2931 5.9837 12.2119 6.38248C12.1307 6.78126 11.9342 7.14739 11.6468 7.43539L9.43565 9.66808C9.78103 11.6315 10.721 13.4415 12.1283 14.8531C13.5357 16.2646 15.3425 17.2097 17.3043 17.5604L19.5569 15.3277C19.8491 15.0433 20.2186 14.8513 20.6192 14.7756C21.0198 14.6999 21.4338 14.7438 21.8096 14.9019L25.7231 16.47C26.1036 16.6288 26.4282 16.8972 26.6556 17.2412C26.883 17.5852 27.0029 17.9891 26.9999 18.4015V23.8846C26.9999 24.7109 26.6718 25.5033 26.0878 26.0875C25.5038 26.6718 24.7117 27 23.8857 27ZM3.12413 2.07692C2.84881 2.07692 2.58477 2.18633 2.39009 2.38108C2.19542 2.57583 2.08605 2.83997 2.08605 3.11539V3.19846C2.56356 9.34616 5.6259 23.8846 23.8234 24.9231C23.9598 24.9315 24.0965 24.9129 24.2257 24.8684C24.3549 24.8239 24.474 24.7542 24.5762 24.6636C24.6784 24.5729 24.7618 24.4629 24.8214 24.3399C24.8811 24.2169 24.9159 24.0834 24.9238 23.9469V18.4015L21.0102 16.8335L18.0309 19.7931L17.5327 19.7308C8.50138 18.5988 7.27644 9.56423 7.27644 9.47077L7.21416 8.97231L10.1623 5.99192L8.60518 2.07692H3.12413Z" fill="#00A5E0"/>
</svg>
